<?xml version="1.0" encoding="utf-8"?>
<!-- Generator: Adobe Illustrator 21.0.0, SVG Export Plug-In . SVG Version: 6.00 Build 0)  -->
<svg version="1.1" id="图层_1" xmlns="http://www.w3.org/2000/svg" xmlns:xlink="http://www.w3.org/1999/xlink" x="0px" y="0px"
	 viewBox="0 0 500 500" style="enable-background:new 0 0 500 500;" xml:space="preserve">
<style type="text/css">
	.st0{stroke:#000000;stroke-width:4;stroke-miterlimit:10;}
	.st1{stroke:#000000;stroke-width:2;stroke-miterlimit:10;}
</style>
<path class="st0" d="M281.7,461h-61.5l-3-1h-16.4l-0.4-0.4c-2.2-2.2-5.7-13.4-6.4-15.6l-0.1-0.2V312.6l-9-3v-9.7L153,247.1l-2-7
	l-23.9-42.8L113,172.2l-3-10l-20-37.3v-0.4c0-5.9,1.3-9.3,4-10.3c4.1-1.6,9.1,3.7,9.7,4.3l0.1,0.2l0.7,1.4c2.9,5.9,11.8,24,18,29.3
	c7.1,6.1,45.7,80.3,47.4,83.4l19,32.9l5,10.1l1.2,2v-5.5c1.1-8.7,12.4-14,12.9-14.2l0.3-0.1h8.7c-7.4-8.3-19.2-31.8-19.7-32.8
	l-0.3-0.7l0.2-0.3c-0.9-3.4-12.7-23.8-23.7-41.8c-8-11.1-30.1-54.3-31.1-56.1l-0.1-0.2v-0.3c-0.8-6.2-13.5-27.8-18.6-36.1
	c-3.2-2.2-7.7-13.6-10.3-20.5c-1.4-2.6-1.6-5-0.5-6.9c2.4-4.1,10-4.3,10.8-4.3h1.5v1.5c0,4.5,8.3,17.9,11.6,23
	C150,93,175.9,145.6,177,147.9l22.9,43.8C208,201,231,245,232,246.9l0.1,0.3l2.7,10.9l16.3,0.9v-6.4c0-7.2,17.3-34.7,19.2-37.8
	L304,156c1.9-14.2,55-95.4,58.1-100.2l10.1-23.1l0.2-0.2c4.6-5,8.4-6.8,11.5-5.7c4.5,1.6,5.1,8.8,5.1,9.6l0.1,0.9l-0.7,0.5
	c-4.6,3-12.5,18.9-15.4,25.1c-1.4,16.5-32.9,67.3-34.2,69.4l-0.2,0.3l-0.3,0.2c-1.9,1.6-12.4,22.4-21.4,41.2
	c-1.7,9.9-40.4,71.2-46,80v3.2l17.6,2l0.3,0.9c2.4,7.8,4.1,12.7,5,15.4l5.1-6.6c0.5-2.3,3.6-9.4,17.2-35.8
	c8.8-17.1,17.8-34.1,17.9-34.3c8.9-18.8,31.8-55.7,32.1-56.1l0.1-0.2c19.4-23.2,21.7-34.2,21.7-34.3l0.1-0.2
	c4-12.1,15.8-25.9,16.3-26.5l0.3-0.2c5-3.6,8.7-4.6,11.1-3c3.5,2.3,2.4,8.8,2.2,9.5V88l-0.1,0.2L399.9,122
	c-5,18.7-23.7,45.3-25.1,47.2l-70.6,131.2l1.3,2.6l4.1,0.8c5.5,0.2,12.3,8.6,13,9.6l1.6,2l-15.8,2.3c-1.6,2.8-6.3,6-8.4,7.4
	c0.2,4.8-3.9,14.8-5.1,17.5v67.7l-3.1,47.1L281.7,461z M220.7,458h60.5l7.8-2.6l2.9-45v-68.2l0.1-0.3c2.4-5.6,5.5-14.6,4.9-17
	l-0.3-1.1l0.9-0.6c3.1-2,7.8-5.5,8.4-7.2l0.3-0.9l12.2-1.7c-2.7-3-6.6-6.4-9.1-6.4H309l-5.7-1.1l-2.7-5.4l0.4-0.7l71-132.1l0.1-0.1
	c0.2-0.3,19.9-28,24.8-46.5l0.1-0.3L415.1,87c0.3-1.8,0.5-5.3-0.9-6.2c-0.6-0.4-2.5-0.8-7.6,2.8c-1.2,1.5-11.9,14.3-15.6,25.3
	c-0.3,1.3-3.1,12.6-22.2,35.5c-1.3,2-23.2,37.5-31.9,55.8c-13,24.5-33.5,64.3-34.8,69.1l0.2,0.5l-9.2,11.8l-1-2.4
	c-0.1-0.2-2-5-5.8-17.2l-18.4-2v-6.8l0.2-0.4c18-28.4,45.1-73,45.8-79.4v-0.3l0.1-0.2c4.4-9.2,18.5-38.5,22.2-42.3
	c2-3.2,32.7-53.1,33.7-68.1v-0.3l0.1-0.3c1-2.2,9.6-20.9,15.8-26.1c-0.3-2-1.1-5.5-3.1-6.2c-1.8-0.6-4.6,1-8.1,4.7l-10,23
	c-15.8,24.1-57,88.9-57.8,99.3v0.3l-34.2,59.3c-7.6,12-18.8,31.4-18.8,36.3v9.6l-21.7-1.1l-3.2-12.9c-1.5-3-24.2-46-31.7-54.5
	l-0.2-0.3l-23-44c-0.3-0.6-27-54.8-39.6-64.5l-0.2-0.2l-0.1-0.2c-1.2-1.7-10.7-16.2-12.1-23.3c-2.3,0.2-5.9,0.9-6.9,2.7
	c-0.6,1-0.4,2.3,0.6,4l0.1,0.2c3.1,8.5,7.5,18.2,9.1,19.1l0.5,0.2l0.2,0.4c0.7,1.2,17.8,28.8,19.2,37.3c1.8,3.4,23.2,45.2,30.8,55.6
	l0.1,0.1c0.1,0.1,6.3,10.4,12.4,20.8c9.7,16.6,11.7,21.1,11.9,22.7c1.7,3.3,14.2,27.8,20.5,33.2l-1,1.1v2.5h-10.7
	c-1.6,0.8-10,5.2-10.8,11.6v16.6l-6.8-11.9l-5-10.1l-19-32.9c-11.1-21.4-41.1-77.8-46.7-82.6c-6.7-5.7-15.8-24.2-18.8-30.2l-0.5-1
	c-1.7-1.8-4.7-4-6.2-3.4c-0.6,0.2-2,1.4-2,7.1l19.9,36.8l3,10l13.9,24.9l24.1,43.2l2,7l32.1,53.2v8.3l9,3v132.9
	c1.7,5.6,4,11.8,5.2,13.7h15.5L220.7,458z"/>
<path d="M102.4,143.5l-2.4-1.8c0.2-0.2,4.6-5.9,11.9-5.7l-0.1,3C106.1,138.8,102.5,143.4,102.4,143.5z"/>
<path d="M175.6,280.6l-2.1-2.1c0.3-0.3,7.5-7.4,15.9-8.4l0.4,3C182.3,273.9,175.6,280.5,175.6,280.6z"/>
<path d="M125.2,88.8l-2.6-1.5c1.5-2.6,5.9-7.1,12.4-5.3l-0.8,2.9C128.3,83.3,125.3,88.6,125.2,88.8z"/>
<path d="M198.7,224.4l-2.4-1.8c0.3-0.4,7.8-9.8,17.7-6.5l-0.9,2.8C205.2,216.3,198.7,224.3,198.7,224.4z"/>
<path d="M371.4,65c-5.7-0.1-10.1-5.4-10.3-5.6l2.3-1.9c0,0,3.7,4.4,8,4.5V65z"/>
<path d="M287.1,226.5c-9.8-0.5-17.3-8.2-17.6-8.6l2.2-2.1c0.1,0.1,7,7.2,15.6,7.6L287.1,226.5z"/>
<path d="M402.2,116c-5.3-1.1-12.8-7.6-13.2-7.8l2-2.3c2,1.7,8,6.4,11.8,7.2L402.2,116z"/>
<path d="M314.4,279.2c-7.2-1.8-13.7-9.4-14-9.8l2.3-1.9c0.1,0.1,6.2,7.2,12.4,8.8L314.4,279.2z"/>
<path class="st1" d="M286,455h-84.5v-3H283v-7.6c-11.8-7.2-12.9-15.3-13-15.7v-0.1v-0.1l2-146.4l0.2-0.3
	c4.2-7.4,16.3-11.5,16.8-11.7l0.9,2.8c-0.1,0-11.1,3.8-15,10l-2,145.5c0.2,0.8,1.8,7.7,12.3,13.8l0.7,0.4V455H286z"/>
<polygon points="202.8,417.3 200.2,415.7 208.8,402.4 200.2,387.2 202.8,385.8 212.3,402.6 "/>
<polygon points="202.8,431.2 200.2,429.8 214.8,403.5 200.2,375.2 202.8,373.8 218.2,403.5 "/>
<rect x="228" y="351.7" transform="matrix(0.807 -0.5905 0.5905 0.807 -193.3889 213.189)" width="3" height="101.6"/>
<rect x="178.7" y="401" transform="matrix(0.5905 -0.807 0.807 0.5905 -230.8435 350.0123)" width="101.6" height="3"/>
<polygon points="227.5,388.8 206.4,364.5 208.6,362.5 227.5,384.2 247.4,362.5 249.6,364.5 "/>
<polygon points="260.3,433.4 237.7,402.5 260.3,369.7 262.7,371.3 241.3,402.5 262.7,431.6 "/>
<polygon points="260.3,420.4 247.7,402.5 260.3,384.6 262.7,386.4 251.3,402.5 262.7,418.6 "/>
<rect x="259" y="399.5" width="3" height="5"/>
<rect x="201" y="400.5" width="3" height="4"/>
<path d="M220.4,338.7l-1.7-2.5c3.9-2.7,12.4-6.1,17.1,0.4l-2.4,1.7C229.2,332.7,220.7,338.5,220.4,338.7z"/>
<path d="M222.4,343.7l-1.7-2.4c2.8-2,9.3-4.5,13.9,0.2l-2.1,2.1C228.4,339.5,222.6,343.5,222.4,343.7z"/>
<path d="M225.4,348.7l-1.8-2.4c1.7-1.3,5.9-3,9,0.1l-2.1,2.1C228.4,346.5,225.5,348.6,225.4,348.7z"/>
<path d="M227.5,329c-8,0-14.5-9.2-14.5-20.5s6.5-20.5,14.5-20.5s14.5,9.2,14.5,20.5S235.5,329,227.5,329z M227.5,291
	c-6.3,0-11.5,7.9-11.5,17.5s5.2,17.5,11.5,17.5s11.5-7.9,11.5-17.5S233.8,291,227.5,291z"/>
<rect x="276" y="305" width="4" height="5"/>
<rect x="284" y="305" width="4" height="5"/>
<rect x="276" y="315" width="4" height="5"/>
<rect x="284" y="315" width="4" height="5"/>
<rect x="276" y="328" width="4" height="5"/>
<rect x="284" y="328" width="4" height="5"/>
<rect x="276" y="339" width="4" height="5"/>
<rect x="284" y="337" width="4" height="5"/>
<rect x="276" y="347" width="4" height="5"/>
<rect x="284" y="347" width="4" height="5"/>
<rect x="276" y="357" width="4" height="5"/>
<rect x="284" y="357" width="4" height="5"/>
<rect x="276" y="368" width="4" height="5"/>
<rect x="284" y="369" width="4" height="5"/>
<rect x="276" y="379" width="4" height="5"/>
<rect x="284" y="379" width="4" height="5"/>
<rect x="276" y="390" width="4" height="5"/>
<rect x="284" y="390" width="4" height="5"/>
<rect x="276" y="401" width="4" height="5"/>
<rect x="284" y="401" width="4" height="5"/>
<rect x="276" y="412" width="4" height="5"/>
<rect x="284" y="413" width="4" height="5"/>
<rect x="282" y="426" width="4" height="5"/>
</svg>
