<?xml version="1.0" encoding="utf-8"?>
<!-- Generator: Adobe Illustrator 21.0.0, SVG Export Plug-In . SVG Version: 6.00 Build 0)  -->
<svg version="1.1" id="图层_1" xmlns="http://www.w3.org/2000/svg" xmlns:xlink="http://www.w3.org/1999/xlink" x="0px" y="0px"
	 viewBox="0 0 500 500" style="enable-background:new 0 0 500 500;" xml:space="preserve">
<style type="text/css">
	.st0{stroke:#000000;stroke-width:4;stroke-miterlimit:10;}
</style>
<path class="st0" d="M271.6,468.5h-43.1c-0.2,0-15.8-0.1-16-12.8l-3-7l-1-34.4c-2.2-0.5-8.3-2.6-10-9.6v-0.2l-1-31
	c-1,0-2.4-0.3-3.6-1.4c-1.6-1.4-2.4-3.6-2.4-6.7V324c-2.1-1.4-10-6.9-10-13.6v-28.6l0.5-0.3c0.6-0.4,15.3-9,10.5-33.9
	c0-0.3-1-6.3,2-15.4l1-39.7c-0.8-2.3-7.7-22.5-2-32.5l2-44.3l-12-13l-1-33.9l12.1-8.1l1-7.3l0.8-0.1c0.7-0.1,68.6-7.9,104.3,0
	l0.6,0.1l0.2,0.6c0,0.1,4,12.4,14.2,14.3l0.8,0.1V102l-0.4,0.3c-0.1,0.1-9.5,6.7-11.6,11.4v45.5c1,1.7,5.4,11.4-1,34.4l1,38.6
	c0.8,1.6,4.6,10.6,0,26.4v10.5l10,13V316l-0.5,0.3c-2.6,1.5-9.2,6.3-9.4,9.9c0,0.9,0.4,1.8,1.4,2.5l0.4,0.3l-2.1,43.5h-5l-1,32
	c0,0.2-0.1,5.5-10,10.6l-2,40.8l-0.2,0.3C285.1,457.3,275.8,467.5,271.6,468.5L271.6,468.5z M211.5,448.3l3,7v0.2
	c0,10.9,13.4,11,14,11h42.9c3-0.9,10.3-8.3,13.2-11.4l2-41.2l0.5-0.3c9.2-4.6,9.4-9.1,9.4-9.1l1-34h5l1.9-40.5
	c-1.6-1.3-1.9-2.8-1.8-3.8c0.2-4.8,7.7-9.8,9.9-11.2v-32.1l-10-13v-11.6c4.8-16.3,0.1-25.1,0.1-25.2l-0.1-0.2v-0.2l-1-39.2v-0.1
	c6.8-24.1,1.2-33.1,1.1-33.2l-0.2-0.2v-0.3v-46.2l0.1-0.2c1.9-4.7,9.9-10.7,11.9-12.1V70.3c-9.7-2.3-13.9-12.4-14.8-15
	c-33.5-7.2-94.8-0.8-102.4,0.1l-1,6.7L184.5,70l1,32.1l12,13l-2,45.7l-0.1,0.2c-5.7,9.5,2,30.9,2.1,31.1l0.1,0.2l-1.1,40.5
	c-2.9,8.6-2,14.5-2,14.5c4.6,23.7-8.2,33.8-11,35.7v27.5c0,6.4,9.4,12.1,9.5,12.1l0.5,0.3v42.6c0,2.4,0.6,4.1,1.7,5.1
	c1.3,1.2,3.1,0.9,3.1,0.9l1.1-0.2v1.1l1,31.9c1.9,7.2,9.1,8.1,9.1,8.1l0.9,0.1L211.5,448.3z"/>
<rect x="170.5" y="87.2" transform="matrix(9.276545e-03 -1 1 9.276545e-03 106.6418 284.1179)" class="st0" width="52.5" height="2"/>
<rect x="196.5" y="99.7" transform="matrix(0.9999 -1.415874e-02 1.415874e-02 0.9999 -1.4007 3.5462)" class="st0" width="106.5" height="2"/>
<path class="st0" d="M303,114.1l-1.5-13.3c-2-4.6-2.9-28.5-3-31.2c0-6.1,1.5-12.5,1.5-12.8l1.9,0.4c0,0.1-1.5,6.5-1.5,12.3
	c0.3,7.4,1.3,27.4,2.9,30.6l0.1,0.2l1.5,13.7L303,114.1z"/>
<rect x="195.5" y="171" transform="matrix(1 -9.276545e-03 9.276545e-03 1 -1.5849 2.3266)" class="st0" width="109" height="2"/>
<rect x="195.5" y="247.5" class="st0" width="109" height="2"/>
<rect x="195.5" y="337.5" class="st0" width="109" height="2"/>
<rect x="248.8" y="318.7" transform="matrix(2.318654e-03 -1 1 2.318654e-03 -123.1277 621.3374)" class="st0" width="2" height="107.4"/>
<rect x="203.5" y="408.5" class="st0" width="89" height="2"/>
<rect x="211.5" y="418.5" class="st0" width="74" height="2"/>
<rect x="248.8" y="420.5" transform="matrix(7.091793e-03 -1 1 7.091793e-03 -207.7924 702.316)" class="st0" width="2" height="70.5"/>
<rect x="222.5" y="420.5" class="st0" width="2" height="29"/>
<rect x="234.5" y="420.5" class="st0" width="2" height="28"/>
<rect x="246.5" y="420.5" class="st0" width="2" height="29"/>
<rect x="258.5" y="420.5" class="st0" width="2" height="29"/>
<rect x="270.5" y="420.5" class="st0" width="2" height="29"/>
<path d="M251.5,116.5h-5v-6h5V116.5z M248.5,114.5h1v-2h-1V114.5z"/>
<path d="M251.5,125.5h-5v-6h5V125.5z M248.5,123.5h1v-2h-1V123.5z"/>
<path d="M251.5,135.5h-5v-6h5V135.5z M248.5,133.5h1v-2h-1V133.5z"/>
<path d="M251.5,144.5h-5v-6h5V144.5z M248.5,142.5h1v-2h-1V142.5z"/>
<path d="M251.5,153.5h-5v-6h5V153.5z M248.5,151.5h1v-2h-1V151.5z"/>
<path d="M251.5,162.5h-5v-6h5V162.5z M248.5,160.5h1v-2h-1V160.5z"/>
</svg>
