<?xml version="1.0" encoding="utf-8"?>
<!-- Generator: Adobe Illustrator 21.0.0, SVG Export Plug-In . SVG Version: 6.00 Build 0)  -->
<svg version="1.1" id="图层_1" xmlns="http://www.w3.org/2000/svg" xmlns:xlink="http://www.w3.org/1999/xlink" x="0px" y="0px"
	 viewBox="0 0 500 500" style="enable-background:new 0 0 500 500;" xml:space="preserve">
<style type="text/css">
	.st0{stroke:#000000;stroke-width:3;stroke-miterlimit:10;}
	.st1{stroke:#000000;stroke-width:4;stroke-miterlimit:10;}
	.st2{stroke:#000000;stroke-width:2;stroke-miterlimit:10;}
</style>
<path class="st0" d="M218.8,461.7c-1.5,0-2.4-0.2-2.5-0.2h-0.2l-0.1-0.1c-9.8-5.9-24.7-11.9-24.9-11.9
	c-30.7-8.9-75.8-43.8-76.2-44.1l-0.4-0.3v-16.8l1.2,0.3l0,0c2.4,0,12.7-14.3,20.9-27.6l0.1-0.1c11.9-13.1,30-33.2,30.8-34.8
	c1-2,20-23.7,22.1-26.2l28-30L325,146.5h0.4c19.9-2,47,2,47.2,2l18.4,3.1l0.2,0.4c1.1,1.7,13.3,5.7,24.4,8.6l0.2,0.1
	c17.1,8,11.9,26.9,11.5,28.1l-3,15.2l-0.2,0.2l-16,19l-167,221l-11.2,15.2l-0.3,0.1C224.9,461.3,221.1,461.7,218.8,461.7z
	 M216.8,459.5c0.9,0.1,5.3,0.6,12-1.9l10.8-14.8l167-221l15.9-18.8l3-14.9c0.2-0.7,5.5-18.2-10.4-25.8c-3.9-1-21.9-5.9-25.2-9
	l-17.7-2.9c-0.3,0-26.7-3.9-46.3-2L219.3,271.2l-28,30c-8.1,9.2-21.1,24.4-21.8,25.8c-1,2-25.9,29.5-31.1,35.2
	c-0.5,0.8-4.8,7.7-9.5,14.3c-7.5,10.8-10.7,13.4-12.3,14V404c4.5,3.4,46.3,35.1,75.3,43.5C192,447.6,206.9,453.6,216.8,459.5z"/>
<path class="st0" d="M229.7,458.8l-2-0.1l0.8-31.5l0.1-0.2c0.5-0.9-0.8-2.8-1.8-3.8l-0.9-0.9l1.2-0.6c8.2-4.6,10.5-14.8,10.5-16.1
	c0-0.5,0-1.3,94.2-119.6l61-76l22-30l6.9-7.9c0.5-1.7-1-2.4-1.4-2.6l-0.2-0.1l-0.2-0.2c-4.6-4.6-34.4-13.6-49.6-17.7l0.5-1.9
	c1.8,0.5,43.6,11.9,50.3,18.1c1.5,0.6,3.3,2.4,2.4,5.2l-0.1,0.2l-7.1,8.2l-21.9,29.9l-61,76c-31.4,39.4-90.9,114.3-93.8,118.7
	c-0.2,2.2-2.5,11.9-10.4,16.9c0.9,1.2,2.2,3.2,1.5,5L229.7,458.8z"/>
<path class="st1" d="M226.9,423.3c-39.3-33.4-106.4-35.8-107.1-35.8l0.1-2c0.7,0,68.5,2.4,108.3,36.3L226.9,423.3z"/>
<path d="M245.7,426l-1.3-12.8l0.3-0.3l50.8-64.3v15.2l-0.2,0.3L245.7,426z M246.5,413.8l0.7,7.2l46.2-57.8v-8.8L246.5,413.8z"/>
<path d="M301.5,353.4v-18.2l24-30.5v18.2L301.5,353.4z M303.5,335.8v11.8l20-25.5v-11.8L303.5,335.8z"/>
<path d="M340.5,301.2v-16.1l23-28.5v17.2L340.5,301.2z M342.5,285.9v9.9l19-22.6v-10.8L342.5,285.9z"/>
<path d="M376.5,255.4v-16.2l22-27.5v16.2L376.5,255.4z M378.5,239.9v9.8l18-22.5v-9.8L378.5,239.9z"/>
<path class="st1" d="M390.5,152.5"/>
<path class="st0" d="M154,220.5h-0.6c-0.6,0-14.5-1.1-19.7-7.4l-0.6-0.7l0.6-0.6c5.7-5.7,34.3-34.2,37.4-35.2
	c3-1.7,54.6-57,88.6-93.7c0.1-0.2,20.6-26.3,58.6-32.3c38.1-6,84.2,18.6,92.9,30.3c1.5,1.2,14.1,11.6,7.2,36l-0.1,0.2l-0.1,0.2
	c-0.2,0.3-20.1,26.1-27,36l-1.6-1.1c6.7-9.5,25.2-33.7,26.9-35.9c6.6-23.9-6.5-33.6-6.7-33.7l-0.1-0.1l-0.1-0.1
	c-7.4-10.1-53.2-35.6-91-29.6c-37.2,5.9-57.2,31.4-57.4,31.6c-14.4,15.6-86.4,93.3-89.5,94.3c-2.2,0.9-22.9,21.1-35.9,34.1
	c4.5,4.4,14.5,5.7,17.1,5.9c0.8-1.4,3.1-5,4.8-6.7c2-2,56.4-58.4,57-59c1.5-1.8,38.2-45.1,51.1-55.1c3.9-3,6.9-6.2,9.8-9.3
	c6.5-7,13.3-14.2,31.5-19.9c31.6-9.7,67,5.9,80.8,13.1c21,11,17,24.5,15.1,31c-0.2,0.8-0.5,1.5-0.6,2.1c-1,5.1-26.4,32.4-29.2,35.5
	l-1.5-1.4c11.2-12,28.1-31.1,28.8-34.5c0.1-0.6,0.3-1.4,0.6-2.3c1.9-6.5,5.5-18.5-14.1-28.7c-13.5-7.1-48.3-22.4-79.2-12.9
	c-17.7,5.5-24,12.2-30.7,19.3c-2.9,3.1-6,6.4-10,9.5c-12.8,9.8-50.5,54.4-50.8,54.9c-2.3,2.4-55.1,57.1-57.1,59.1
	c-1.9,1.9-4.8,6.8-4.8,6.8L154,220.5z"/>
<path class="st0" d="M114.1,278.7c-0.5,0-1-0.1-1.3-0.5c-0.5-0.4-3.4-0.7-6.3-0.7v-2c2.3,0,6.4,0.2,7.6,1.2l0,0c0.6,0,2.3-0.9,3.7-2
	l35.6-37.6l-0.9-15.8c-10.9-2.2-24-9.6-24.5-10l-0.2-0.1l-0.1-0.2c-2.2-3-5.9-1.2-6.6-0.8l-37.6,36.6l-1,14.6l-2-0.1l1-15.4
	l38.5-37.4c2-1.2,6.4-2.4,9.2,1.1c1.6,0.9,14.5,8,24.5,9.8l0.8,0.1l1.1,18.2l-36.4,38.4C117.5,277.5,115.5,278.7,114.1,278.7z"/>
<path class="st0" d="M116.5,275.5h-2v-14.6c-6.1-6.7-29.1-14.4-29.3-14.4l0.6-1.9c1,0.3,24.3,8.2,30.4,15.3l0.2,0.3v15.3
	L116.5,275.5L116.5,275.5z"/>
<rect x="108" y="240" transform="matrix(0.6785 -0.7346 0.7346 0.6785 -133.7588 176.3268)" class="st0" width="53.1" height="2"/>
<path class="st2" d="M96.3,285.6c-0.4,0-0.8-0.1-1.2-0.2l0.6-1.9c1.8,0.6,4.2-2.4,4.8-3.6l7.8-10.7c-2.9-8.9-17.8-10.6-20.5-10.8
	l-13.7,12.7l-1.4-1.5L87,256.3h0.4c0.8,0,19.8,1.2,22.9,12.7l0.1,0.5l-8.3,11.4C102,281.5,99.5,285.6,96.3,285.6z"/>
<path class="st2" d="M92.4,286.1c-3,0-7.3-1.5-11.2-3.6c-6.1-3.4-11.4-8.4-9.6-11.5c0.6-1,2-2.1,5.9-1.4c2.7,0.5,5.9,1.7,9,3.4
	c6.1,3.4,11.4,8.4,9.6,11.5l0,0C95.5,285.6,94.1,286.1,92.4,286.1z M75.3,271.3c-1.1,0-1.8,0.3-2,0.6c-0.7,1.2,2.4,5.3,8.8,8.8
	s11.5,4,12.2,2.7c0.7-1.2-2.4-5.3-8.8-8.8c-2.9-1.6-5.9-2.7-8.4-3.2C76.4,271.4,75.8,271.3,75.3,271.3z"/>
</svg>
