<?xml version="1.0" encoding="utf-8"?>
<!-- Generator: Adobe Illustrator 21.0.0, SVG Export Plug-In . SVG Version: 6.00 Build 0)  -->
<svg version="1.1" id="图层_1" xmlns="http://www.w3.org/2000/svg" xmlns:xlink="http://www.w3.org/1999/xlink" x="0px" y="0px"
	 viewBox="0 0 500 500" style="enable-background:new 0 0 500 500;" xml:space="preserve">
<style type="text/css">
	.st0{stroke:#000000;stroke-width:4;stroke-miterlimit:10;}
	.st1{stroke:#000000;stroke-width:2;stroke-miterlimit:10;}
</style>
<path class="st0" d="M183,402.5h-11.8c-0.2-0.1-2.2-0.7-3.8-3.6c-2.4-4.3-3.9-13.6,2.1-33.6c9.9-32.6,80.3-296.3,81-299
	c0-0.2,1.1-6.3,5.4-9.5l0.3-0.3l74.4,13.1l-0.3,2l-73.6-12.9c-3.4,2.8-4.3,8-4.3,8.1c-0.7,2.8-71.1,266.5-81,299.1
	c-9,29.6-0.8,34.3,0.2,34.7H183V402.5z"/>
<path class="st0" d="M247.1,421.5h-0.2l-18.8-3.1v-21.7c-1.6-4.6,4-13.3,6.3-16.6l-42.1-10.5c-5.2,3.7-8.4,24.3-9.2,32l-2-0.2
	c0.3-3,3.3-29.6,10.5-33.8l0.3-0.2l45.9,11.5l-0.9,1.2c-2.4,3.2-8.3,12.4-6.9,16l0.1,0.2v20.3l17.1,2.8c0.6,0,4-0.1,6.6-0.9l0.6,1.9
	C251.3,421.5,247.3,421.5,247.1,421.5z"/>
<path class="st1" d="M206.9,441.6l-37.4-10.4v-13.1l19.6-24.8l36.3,7.3l1.1,15.1L206.9,441.6z M171.5,429.7l34.6,9.6l18.4-24.2
	l-0.9-12.9l-33.7-6.7l-18.4,23.2L171.5,429.7L171.5,429.7z"/>
<path d="M194,415.8l-8.6-3.7l1.3-7.6h0.8c1,0,7.3,1.6,9.2,2l1.1,0.3L194,415.8z M187.6,410.9l5.4,2.3l2.1-5
	c-2.7-0.7-5.4-1.3-6.8-1.6L187.6,410.9z"/>
<path d="M205.8,418.6c-0.4,0-0.7-0.1-1-0.4c-0.6-0.6-4.3-2.6-6.7-3.8l-1.1-0.5l4.2-5.6l9.7,3.7l-0.5,1c-1.2,2.4-3,5.4-4.4,5.6
	C205.9,418.6,205.8,418.6,205.8,418.6z M200,413.1c1.7,0.9,4.6,2.4,5.8,3.3c0.5-0.5,1.4-1.9,2.3-3.4l-6.2-2.3L200,413.1z"/>
<polygon class="st1" points="206.9,428.6 171.3,419.5 171.7,417.5 206.1,426.4 222.7,401 224.3,402 "/>
<rect x="205.1" y="427" class="st1" width="2" height="13.5"/>
<path class="st0" d="M254.5,420.5h-0.4l-0.3-0.3c-5.6-5.6-6.2-8.8-6.3-9.6c-2.9-12.6,5-24.9,6.1-26.6l73-303.8
	c0.4-1.7,2.4-10.4,5.8-11.4c0.7-0.2,1.8-0.2,2.9,0.9c4.4,4.4,1.4,14.6,1.3,15l-67.9,302.8c0.9,10.8-2.7,22.2-3,23.2
	C263.3,420.4,254.6,420.5,254.5,420.5z M333,70.8c-0.1,0-0.1,0-0.2,0c-1.7,0.5-3.6,6.2-4.4,9.9l-73,304.2l-0.1,0.2
	c-0.1,0.1-8.7,12.8-5.8,25.2v0.2c0,0,0.2,2.7,5.4,8c1.5-0.1,7.1-1.1,8.6-8.2v-0.1c0-0.1,3.9-11.9,3-22.6v-0.2v-0.2l68-303
	c0.8-2.7,2.2-10.1-0.7-13.1C333.4,70.9,333.2,70.8,333,70.8z"/>
<path class="st1" d="M265.5,300.5l-21.5-5.2c-0.3-0.2-2.6-1.6-2.4-3.7c0.1-1.4,1.3-2.4,3.6-3.1l0.3-0.1l21.4,5.1
	c0.6,0.3,3.6,1.6,3.4,3.7c-0.2,1.9-2.7,2.7-4.6,3.2L265.5,300.5z M244.9,293.6l20.6,4.9c2.6-0.7,2.8-1.3,2.8-1.4
	c0-0.3-1-1.1-2.2-1.7l-20.6-4.9c-1.4,0.5-2,1-2,1.4C243.5,292.4,244.3,293.2,244.9,293.6z"/>
<path class="st1" d="M213,297.5c-6.9,0-12.5-5.6-12.5-12.5s5.6-12.5,12.5-12.5s12.5,5.6,12.5,12.5S219.9,297.5,213,297.5z
	 M213,274.5c-5.8,0-10.5,4.7-10.5,10.5s4.7,10.5,10.5,10.5s10.5-4.7,10.5-10.5S218.8,274.5,213,274.5z"/>
</svg>
