<?xml version="1.0" encoding="utf-8"?>
<!-- Generator: Adobe Illustrator 21.0.0, SVG Export Plug-In . SVG Version: 6.00 Build 0)  -->
<svg version="1.1" id="图层_1" xmlns="http://www.w3.org/2000/svg" xmlns:xlink="http://www.w3.org/1999/xlink" x="0px" y="0px"
	 viewBox="0 0 500 500" style="enable-background:new 0 0 500 500;" xml:space="preserve">
<style type="text/css">
	.st0{stroke:#000000;stroke-width:3;stroke-miterlimit:10;}
	.st1{stroke:#000000;stroke-width:4;stroke-miterlimit:10;}
	.st2{stroke:#000000;stroke-width:2;stroke-miterlimit:10;}
</style>
<path class="st0" d="M175.5,437.1l-1.4-0.8c-0.1-0.1-14-8.1-27.6-16.2c-28.1-16.8-28.1-17.8-28.1-18.7c-0.4-0.7-4.5-2.3-8.7-3.2
	c-0.2,0-13.6-3.6-13.6-18v-14.3l0.4-0.3c0.2-0.1,16.8-12.7,20.9-21.9l0.1-0.1c0.5-0.8,12.9-20.3,20.5-24.7l16.4-15.3l0.7,0.4
	l75.5,44.2L179,412.7L175.5,437.1z M120.4,401.1c2.4,2.7,33.3,21,53.4,32.6l3-22.1l50.4-63L154.6,306L139,320.5
	c-6.9,4-19,22.8-19.8,24c-4,9-18.4,20.3-21.1,22.3v13.3c0,12.8,11.5,15.8,11.9,16C114.6,397.1,119.9,398.8,120.4,401.1z"/>
<rect x="139.6" y="347.9" transform="matrix(0.4961 -0.8682 0.8682 0.4961 -268.3721 318.9551)" class="st0" width="2.1" height="85.7"/>
<path class="st1" d="M174.9,436.5c-0.3,0-0.5,0-0.6-0.1l0.7-2c-0.1,0-0.1,0-0.1,0s3,0.1,9.5-10.2l26.7-38.4l0.1-0.1l11-9.9l15.6,1.1
	c-0.1,0,3.1,0.3,11.6-8.2l89.2-123.2c0.5-0.5,41.5-47.9,46.7-58.3l0.1-0.1l18-27.6c0.6-1.1,9.7-20.7-1.8-30.5L326,90.9
	c-0.2-0.2-5.7-3.7-9.3-0.1l-31.9,34l-55.2,65.8l-18.1,19.2l-11.7,12.7l-27.6,32.9l-12.8,14.9l-15.7,19.9l-1.7,27.1l-2.1-0.1
	l1.8-27.8l16.1-20.5l12.8-14.9l27.6-32.9l11.7-12.8l18.1-19.1l55.2-65.8l31.9-34.1c3.8-3.8,9.5-1.8,11.9-0.2l75.5,38.3l0.1,0.1
	c13.2,11,2.8,32.3,2.4,33.2l-0.1,0.1l-18,27.6c-5.4,10.7-45.2,56.7-46.9,58.6l-89.3,123.3l-0.1,0.1c-8.9,8.9-12.7,9-13.7,8.8
	l-14.3-1l-10.2,9.2l-26.5,38.2C179.9,435.1,176.4,436.5,174.9,436.5z"/>
<path class="st1" d="M250.1,370H248v-21.7c-1-5.7-11.4-13.5-12.3-14.1c-2.5-1.4-73.4-40.4-79.6-43.5c-6-3-11-2-11-2l-0.4-2.1
	c0.2,0,5.7-1.1,12.4,2.2c6.3,3.2,76.7,41.9,79.7,43.6l0.1,0.1c0.5,0.4,12.1,8.8,13.2,15.6v0.2V370z"/>
<polygon class="st1" points="242.4,338.3 240.7,337 390.6,141.4 401.2,127.6 402.9,128.9 392.3,142.7 "/>
<path class="st2" d="M150.3,358.3l-16.5-13l8.6-12.2l18.9,10.6L150.3,358.3z M136.7,344.9l13.2,10.4l8.2-10.9l-15.1-8.5L136.7,344.9
	z"/>
<path class="st2" d="M187.8,379.6l-17.7-13l9.9-11.1l17.7,10.6L187.8,379.6z M173.1,366.2l14.1,10.4l7.2-9.9l-14.2-8.5L173.1,366.2z
	"/>
</svg>
