<?xml version="1.0" encoding="utf-8"?>
<!-- Generator: Adobe Illustrator 21.0.0, SVG Export Plug-In . SVG Version: 6.00 Build 0)  -->
<svg version="1.1" id="图层_1" xmlns="http://www.w3.org/2000/svg" xmlns:xlink="http://www.w3.org/1999/xlink" x="0px" y="0px"
	 viewBox="0 0 500 500" style="enable-background:new 0 0 500 500;" xml:space="preserve">
<style type="text/css">
	.st0{fill:#231815;stroke:#000000;stroke-width:4;stroke-miterlimit:10;}
</style>
<path class="st0" d="M75.8,381l-27.2-10.4V327l25.6,10.1L75.8,381z M51,368.9l22.2,8.5l-1.4-38.6L51,330.6V368.9z"/>
<path class="st0" d="M110.8,392.8L86.6,382l-1.5-40.8l25.7,8.1V392.8z M89,380.4l19.4,8.7v-38l-20.7-6.5L89,380.4z"/>
<path class="st0" d="M149,406.2l-26.9-11.7v-41l26.9,7.7V406.2z M124.5,392.9l22,9.6V363l-22-6.3V392.9z"/>
<path class="st0" d="M185.1,418.4l-25.9-11.6l-1-41.7l26.9,10V418.4z M161.6,405.2l21.1,9.4v-37.9l-21.9-8.2L161.6,405.2z"/>
<path class="st0" d="M206.8,421.1c-3.5,0-8.2-1.5-12-8.3l-0.2-0.3v-22.3l0.5-0.4c0.2-0.1,4.3-3.4,9.2-2.3c3.5,0.8,6.4,3.5,8.6,8.1
	l0.1,0.3l-1.1,23.9l-0.7,0.3C211.4,420.3,209.5,421.1,206.8,421.1z M197.2,412c4.6,8.1,10.6,7,12.6,6.3l1-21.8
	c-1.9-3.7-4.2-5.9-6.8-6.5c-3-0.7-5.7,0.8-6.7,1.5V412H197.2z"/>
<path class="st0" d="M242.5,432.2c-4.7,0-10.8-1.6-12.7-7.5l-0.1-0.4v-20.5l0.4-0.4c0.1-0.1,3.6-3.3,8.1-2.6c3.3,0.5,6.2,3,8.6,7.4
	l0.1,0.3v23.1l-1,0.2C245.1,432,243.9,432.2,242.5,432.2z M232.3,424c2,6,9.6,5.8,12.4,5.5v-20.4c-2-3.5-4.2-5.5-6.7-5.9
	c-2.6-0.4-4.8,1-5.7,1.6V424z"/>
<path class="st0" d="M61.2,263.9l-0.7-2.3l19-5.7l34.7-1.1c10-2.1,20.4-11.4,21.4-12.3L248.2,94.9c2.7-4.2-1-10.7-1.6-11.7
	l-16.7-14.6L212.7,64l0.6-2.4l17.7,4.8l17.5,15.4c0.2,0.4,5.4,8.7,1.6,14.6L137.4,244.2l-0.1,0.1c-0.5,0.4-11.5,10.6-22.7,13h-0.2
	l-34.6,1.1L61.2,263.9z"/>
<path class="st0" d="M385.1,105.4c-3.4,0-5.3-0.9-5.9-1.2l-83.6-24.7C288,77.1,283,73.6,280.9,69c-2-4.4-0.6-8-0.5-8.2l7.3-20.1
	v-2.9h2.4v3.4l-7.5,20.5c-0.1,0.2-1.1,2.9,0.5,6.3c1.8,3.8,6.4,6.9,13.2,9.1l83.9,24.8l0.2,0.1c0,0,4,2.4,13-0.6l30-25l1.6,1.9
	l-30.4,25.3l-0.2,0.1C390.5,105,387.5,105.4,385.1,105.4z"/>
<path class="st0" d="M263.8,469L51.4,393.1l0.4-8.2c-10.3-19.5-19.1-23.3-19.2-23.4l-0.7-0.3l-0.1-0.7L26,295l0,0l0,0l0,0l0,0
	c1.2-1.5,17.4-21.4,20.2-24.5s9.7-7.3,10.9-8.1l14.2-16.7l2-8.5L190.5,87.9l6.3,0.2l10.7-13.4c1.7-8.7,4.7-13.3,5.2-14
	c15-27,46.5-33.2,46.8-33.3l0.3-0.1l0.3,0.1l198,58.7l17.8,28.5v0.3c0.9,35.3-5.4,65.6-5.4,65.9l-0.1,0.4l-8,14
	c-7.8,8.4-20.4,22.2-21.6,24.4c0,1.7-0.9,6.6-2.5,14.8v0.2l-107,163.5l0.3-27.4l-11.7,16.7c0,26.9-3.1,32.1-3.5,32.6l-20.6,35.1V425
	l-8.2,1.2l-1.7,27l-0.5,0.3c-4.7,3.1-17.4,5.8-21.1,6.6L263.8,469z M53.9,391.4l207.6,74.2l0.3-7.5l1-0.2c0.2,0,15.2-2.9,20.6-6.1
	l1.8-27.8l13-1.9v24l16.1-27.5c0.2-0.3,3.1-5.3,3.1-31.6v-0.4l16.6-23.8l-0.3,26.9l102.2-156.1c1.3-6.3,2.5-13.2,2.5-14.1
	c-0.2-0.7-0.4-1.6,22.2-25.9l7.6-13.4c0.5-2.4,5.5-27.9,5.4-58.7L296.3,390.1L28.8,298.5l5.5,61.1c2.4,1.3,10.6,6.7,19.9,24.4
	l0.2,0.3L53.9,391.4z M28.5,295.8l266.7,91.4l178.2-270.1c0-0.6,0-1.1,0-1.7l-16.9-27.2L259.7,29.8c-3.1,0.7-31.2,7.4-44.9,32.1
	l-0.1,0.1c0,0-3.2,4.5-4.9,13.3l-0.1,0.3L198,90.5l-6.3-0.2l-116,147.9l-2,8.6l-14.8,17.5l-0.2,0.1c-0.1,0-7.8,4.7-10.6,7.7
	C45.6,274.9,31.6,292,28.5,295.8z M440.7,219.1c0,0.1,0,0.2,0,0.3C440.7,219.3,440.7,219.2,440.7,219.1z"/>
<rect x="295.1" y="388.6" transform="matrix(0.9994 -3.351870e-02 3.351870e-02 0.9994 -13.4332 10.1592)" class="st0" width="2.4" height="34.3"/>
<path class="st0" d="M227.2,365.2l-2.3-0.8l10.9-30.8c2-8.4-3-12.8-3.8-13.5l-102.5-33.7c-5.4-1.5-13.5-0.3-15.1,0l-34.5,27.7
	l-1.5-1.9l35-28.1l0.3-0.1c0.4-0.1,10-1.9,16.6,0l102.9,33.8l0.2,0.1c0.3,0.2,7.5,5.5,4.9,16.2v0.1L227.2,365.2z"/>
<path class="st0" d="M312.3,362.7l-21.2-33.1l-20-24.1l-0.1-0.2c-0.1-0.4-2.7-8.8,1.7-13.4l103.9-154.6l0.1-0.1
	c0.4-0.4,10.5-8.7,22.7-8.8l31.5-1.2l30.4,10l-0.8,2.3l-30-9.8l-31.1,1.2c-10.6,0.1-19.9,7.2-21.1,8.2L274.6,293.4l-0.1,0.1
	c-3.1,3.2-1.6,9.6-1.2,10.8l19.9,23.9l21.2,33.2L312.3,362.7z"/>
</svg>
