<?xml version="1.0" encoding="utf-8"?>
<!-- Generator: Adobe Illustrator 21.0.0, SVG Export Plug-In . SVG Version: 6.00 Build 0)  -->
<svg version="1.1" id="图层_1" xmlns="http://www.w3.org/2000/svg" xmlns:xlink="http://www.w3.org/1999/xlink" x="0px" y="0px"
	 viewBox="0 0 500 500" style="enable-background:new 0 0 500 500;" xml:space="preserve">
<style type="text/css">
	.st0{stroke:#000000;stroke-width:4;stroke-miterlimit:10;}
	.st1{stroke:#000000;stroke-width:2;stroke-miterlimit:10;}
</style>
<path class="st0" d="M278.4,444.5h-0.2l-86.9-27h-2.8c-0.4,0-2.6,0.1-4.7-1.8c-2.9-2.5-4.3-7.3-4.3-14.2c0-15.7-2.9-317.3-3-322.9
	c-0.1-0.9-0.3-7,11.8-10h0.2l19.9-1c3.3-0.7,57.1-11.9,74.2-7c2.4-0.2,24.6-1.8,36.3,3.1l0.2,0.1l0.1,0.1c0.1,0.1,3.3,3.3,4.3,11.6
	c1,8,1,332.3,1,346.1l-1,10.5l-0.4,0.3c-0.6,0.5-15.6,11.2-44.6,12.2L278.4,444.5z M188.5,415.5h3.3l86.8,27
	c25.8-0.9,40.5-9.9,42.9-11.6l1-9.5c0-3.3,0-337.9-1-345.8c-0.8-6.6-3.1-9.6-3.6-10.3c-11.7-4.7-35.1-2.9-35.3-2.8h-0.2l-0.2-0.1
	c-16.6-4.9-72.9,6.9-73.5,7h-0.2l-19.9,1c-10.7,2.7-10.2,7.8-10.2,7.9v0.1c0,3.1,3,307.2,3,323c0,7.8,2,11.2,3.6,12.7
	s3.2,1.3,3.3,1.3L188.5,415.5z"/>
<path class="st0" d="M279,444v-2c6.7,0,10.5-8.9,11-10.2v-74.5l-2-3V354c0-2.8-1-276.1-1-281c0-4.6-3.8-10.4-3.8-10.4l1.7-1.1
	c0.2,0.3,4.2,6.3,4.2,11.6c0,4.9,1,270.2,1,280.7l2,3v75.5l-0.1,0.2C291.8,432.8,287.6,444,279,444z"/>
<rect x="304.3" y="57.1" transform="matrix(8.690876e-02 -0.9962 0.9962 8.690876e-02 204.5765 372.1714)" class="st1" width="2" height="34.7"/>
<path class="st1" d="M315,329h-13v-32h13V329z M304,327h9v-28h-9V327z"/>
<path class="st1" d="M312.7,374H302l-1-28.3l0.2-0.3c0.1-0.1,5.6-6.5,13.2-3.3l0.6,0.3v25.9L312.7,374z M304,372h7.4l1.7-4.2v-24.1
	c-5.2-1.8-9,1.6-10,2.7L304,372z"/>
<path class="st1" d="M313.5,216H307v-23h7.7l1.3,3.8v15.5L313.5,216z M309,214h3.5l1.5-2.3v-14.5l-0.7-2.2H309V214z"/>
<path class="st1" d="M314.8,180H307v-23h7.8l1.2,5v13.2L314.8,180z M309,178h4.2l0.8-3.1v-12.8l-0.8-3.1H309V178z"/>
<path class="st0" d="M333.2,465.1c-47.2,0-153.3-20.9-154.4-21.1L107,425.8v-13.3l0.5-0.3c26.9-16.9,71-19.1,71.5-19.2l0.1,2
	c-0.4,0-43.5,2.2-70,18.6v10.7l70.2,17.8c1.1,0.2,116.2,22.9,159.6,21l8.1-1.8v-10.7l-24.6-17.7l1.2-1.6l25.4,18.3v13.3l-10,2.2
	C337.2,465.1,335.3,465.1,333.2,465.1z"/>
<path class="st0" d="M323.6,451.3c-15.4,0-39.4-3.4-45.7-4.3l-92.1-14L113,413.8V411h2v1.2l71.2,18.8l91.9,14
	c20.4,3,53.9,6.4,56.9,2.7c0.1-0.1,0.1-0.1,0-0.4c-2.8-7.5-15.3-12.4-15.4-12.4l0.7-1.9c0.5,0.2,13.5,5.3,16.6,13.6
	c0.3,0.8,0.2,1.7-0.3,2.3C335.2,450.7,330.2,451.3,323.6,451.3z"/>
<path class="st1" d="M311,399c-3.9,0-7-3.8-7-8.5s3.1-8.5,7-8.5s7,3.8,7,8.5S314.9,399,311,399z M311,384c-2.8,0-5,2.9-5,6.5
	s2.2,6.5,5,6.5s5-2.9,5-6.5S313.8,384,311,384z"/>
<path class="st1" d="M309.5,102c-2.5,0-4.5-2.2-4.5-5s2-5,4.5-5s4.5,2.2,4.5,5S312,102,309.5,102z M309.5,94c-1.4,0-2.5,1.3-2.5,3
	s1.1,3,2.5,3s2.5-1.3,2.5-3S310.9,94,309.5,94z"/>
</svg>
