<?xml version="1.0" encoding="utf-8"?>
<!-- Generator: Adobe Illustrator 21.0.0, SVG Export Plug-In . SVG Version: 6.00 Build 0)  -->
<svg version="1.1" id="图层_1" xmlns="http://www.w3.org/2000/svg" xmlns:xlink="http://www.w3.org/1999/xlink" x="0px" y="0px"
	 viewBox="0 0 500 500" style="enable-background:new 0 0 500 500;" xml:space="preserve">
<style type="text/css">
	.st0{stroke:#000000;stroke-width:4;stroke-miterlimit:10;}
	.st1{stroke:#000000;stroke-width:2;stroke-miterlimit:10;}
	.st2{stroke:#000000;stroke-width:3;stroke-miterlimit:10;}
</style>
<path class="st0" d="M359.3,411.3c-3.9,0-9.2-0.6-16.5-2.2c-20.9-4.7-54.5-17.3-56.8-18.1l-20.4-2.4c-0.3,0-29.8-4-31.1-26.3v-0.1
	l1.2-20.5l-2.4-19.3L231,180.1c-0.4-1.3-2.7-10.5,3.6-19.5c7.6-10.9,24.2-16.9,49.3-17.8l0,0c2.4,0,52.2,0.2,75.1,12.1l20.3-1.2
	c0.3,0,26.4-0.8,28.8,36l2.4,38.6c0,0.2,1.3,16.2,9,23.2c0,0,0,0,0.1,0c2.7,0,15.4,0.9,19.8,17.7v0.3v11.8l16-6.9l0.5,0.3
	c0.1,0.1,7.9,5.4,4,14.5l-0.2,0.4l-10.8,4.8l-2.4,8.3l-7.1,7.1V336l-2.4,4.9l-1.2,26.9l-51.2,32.9L369,409
	C368.4,409.6,366.1,411.3,359.3,411.3z M236.6,362.3c1.2,20.6,29,24.3,29.3,24.4l20.8,2.5c0.3,0.1,35.2,13.3,56.6,18.1
	c20.4,4.5,24.3,0.4,24.4,0.3l0.1-0.1l0.2-0.1l15.7-8.5l50.2-32.3l1.2-26.3l2.4-4.8v-26.7l7.4-7.4l2.5-8.7l10.9-4.9
	c2.5-6.3-1.6-10.3-3-11.4l-17.8,7.6v-14.7c-4.6-16.9-17.7-16.1-18.2-16h-0.4l-0.3-0.3c-8.7-7.4-10-24.1-10-24.8l-2.4-38.7
	c-2.3-34.8-26.5-34.1-26.7-34.1l-20.8,1.2l-0.2-0.1c-22.5-11.8-73.9-12-74.4-12c-24,0.9-40.5,6.8-47.6,17c-6.2,8.8-3.4,17.9-3.3,18
	v0.3l2.4,142.4l2.4,19.4v0.1L236.6,362.3z"/>
<path class="st0" d="M343.3,409.2l-0.4-2c9.5-2.1,13.2-10.1,13.7-11.3V253.6v-0.1l2.4-16.9l1.2-37.3c-3.4-21.5-14.1-20.8-14.6-20.8
	h-0.2h-0.2l-13.2-3.6c-6.8-0.2-77-12-84.1-13.2c-9.6,8.3-15.7,8.4-16,8.4v-2c0.1,0,5.9-0.2,15-8.2l0.4-0.3l0.5,0.1
	c0.8,0.1,78.5,13.3,84.4,13.3h0.3l13.1,3.6c1.7-0.1,13.1,0.3,16.6,22.6v0.1v0.1l-1.2,37.5l-2.4,16.8v142.6l-0.1,0.2
	C358.3,396.9,354.5,406.7,343.3,409.2z"/>
<path class="st0" d="M382.4,401.2h-2l0.3-17.2c0-1.7,3.6-172.9,2.4-194.3c-1.2-20.9-24.6-32.9-24.8-33l0.9-1.8
	c1,0.5,24.7,12.6,25.9,34.7c1.2,21.5-2.4,192.8-2.4,194.5L382.4,401.2z"/>
<rect x="248" y="151.8" transform="matrix(0.8503 -0.5262 0.5262 0.8503 -41.0698 161.1852)" class="st1" width="29.7" height="2"/>
<rect x="328" y="165.1" transform="matrix(0.9011 -0.4337 0.4337 0.9011 -37.795 166.5411)" class="st1" width="36.2" height="2"/>
<rect x="360.9" y="212.8" transform="matrix(0.9785 -0.2061 0.2061 0.9785 -36.065 81.3835)" class="st1" width="23.4" height="2"/>
<rect x="359.7" y="223.6" transform="matrix(0.9805 -0.1963 0.1963 0.9805 -36.8507 77.3932)" class="st1" width="24.6" height="2"/>
<rect x="356.6" y="380.6" transform="matrix(0.9286 -0.3711 0.3711 0.9286 -115.2196 164.4091)" class="st1" width="26" height="2"/>
<polygon class="st1" points="363.8,393.5 358.2,393.5 358.2,391.5 363.4,391.5 381.4,385.5 382,387.4 "/>
<rect x="377.4" y="369.8" transform="matrix(0.861 -0.5086 0.5086 0.861 -131.8491 259.179)" class="st1" width="61.7" height="2"/>
<path class="st2" d="M295.8,342.8c-8.4,0-15.7-7.7-16.5-17.8c-0.4-5.1,0.9-9.9,3.6-13.8s6.6-6.2,11-6.6c8.8-0.7,16.7,7.3,17.6,17.8
	c0.8,10.5-5.7,19.6-14.5,20.3C296.5,342.7,296.2,342.8,295.8,342.8z M294.9,306.6c-0.3,0-0.6,0-0.9,0c-3.7,0.3-7.1,2.3-9.5,5.7
	c-2.4,3.4-3.6,7.9-3.2,12.5c0.8,9.4,7.7,16.6,15.4,15.9c7.7-0.6,13.4-8.8,12.7-18.2C308.7,313.5,302.3,306.6,294.9,306.6z"/>
<path class="st0" d="M143.6,344.9c-3.4,0-8-0.5-14.4-1.9c-18.2-4.1-47.4-15.2-49.5-16L62,324.9c-0.3,0-26.1-3.5-27.2-23.4v-0.1v-0.1
	l1-18.1l-2.1-17.1l-2.1-125.9c-0.4-1.2-2.4-9.4,3.3-17.5c6.7-9.5,21.1-14.8,42.9-15.7l0,0c2.1,0,45.4,0.1,65.5,10.7l17.6-1.1
	c0.2,0,23.1-0.7,25.3,31.9l2.1,34.2c0,0.1,1.1,14.2,7.8,20.4l0,0c2.4,0,13.5,0.8,17.4,15.7v0.3v10.2l13.8-6l0.5,0.3
	c0.1,0,7,4.8,3.5,13l-0.2,0.4l-9.4,4.2l-2,7.3l-6.2,6.3v23.3l-2.1,4.3l-1.1,23.8l-44.6,29.1l-13.6,7.4
	C151.6,343.4,149.5,344.9,143.6,344.9z M36.8,301.4c1,18.1,25.2,21.4,25.4,21.4l18.1,2.2c0.3,0.1,30.7,11.8,49.3,16
	c17.6,4,21.1,0.4,21.1,0.3l0.1-0.1l0.2-0.1l13.7-7.5l43.7-28.5l1-23.2l2.1-4.3V254l6.4-6.5l2.2-7.7l9.5-4.3c2.1-5.4-1.3-8.8-2.5-9.9
	l-15.6,6.8v-13.1c-4-14.9-15.6-14.1-15.8-14.1h-0.4l-0.3-0.3c-7.6-6.6-8.7-21.4-8.8-22l-2.1-34.2c-2-30.6-22.3-30.1-23.2-30
	l-18.2,1.1l-0.2-0.1c-19.5-10.4-64.3-10.6-64.8-10.6c-21,0.8-35,5.8-41.3,14.8c-5.5,7.8-3,15.9-3,16v0.3l2.1,126l2.1,17.1v0.1
	L36.8,301.4z"/>
<path class="st0" d="M129.7,343l-0.4-2c8.2-1.8,11.4-8.8,11.8-9.9V205.2l2.1-15l1-33c-3-19-12.5-18.3-12.6-18.3h-0.2l-11.6-3.2
	c-6-0.2-66.7-10.6-73.2-11.7c-8.4,7.3-13.8,7.4-14,7.4v-2c0,0,5.1-0.2,13-7.2L46,122l0.5,0.1c0.7,0.1,68.4,11.7,73.5,11.7h0.3
	l11.4,3.2c1.6-0.1,11.5,0.4,14.6,20.1v0.1l-1.1,33.3l-2.1,14.9v126.1l-0.1,0.2C142.9,332.1,139.6,340.8,129.7,343z"/>
<path class="st0" d="M163.9,335.9h-2l0.2-15.2c0-1.5,3.1-152.9,2.1-171.9c-1-18.4-21.3-29-21.6-29.1l0.9-1.8
	c0.9,0.4,21.6,11.2,22.6,30.7c1,19-2.1,170.5-2.1,172L163.9,335.9z"/>
<rect x="46.5" y="115.1" transform="matrix(0.8469 -0.5318 0.5318 0.8469 -52.6344 49.4186)" class="st1" width="26" height="2"/>
<rect x="116.3" y="126.9" transform="matrix(0.8985 -0.439 0.439 0.8985 -42.7389 70.9786)" class="st1" width="31.6" height="2"/>
<rect x="145" y="169.1" transform="matrix(0.9779 -0.209 0.209 0.9779 -32.1239 36.1936)" class="st1" width="20.4" height="2"/>
<rect x="144" y="178.7" transform="matrix(0.9801 -0.1987 0.1987 0.9801 -32.6207 34.3318)" class="st1" width="21.5" height="2"/>
<rect x="141.2" y="317.5" transform="matrix(0.9267 -0.3759 0.3759 0.9267 -108.5369 80.6972)" class="st1" width="22.7" height="2"/>
<polygon class="st1" points="147.5,329.1 142.6,329.1 142.6,327.1 147.2,327.1 162.8,321.9 163.4,323.7 "/>
<rect x="159.3" y="307.9" transform="matrix(0.8576 -0.5143 0.5143 0.8576 -132.3354 139.8019)" class="st1" width="54" height="2"/>
<path class="st2" d="M88.3,284.3c-3,0-5.9-1.1-8.4-3.2c-3.5-3-5.7-7.6-6.1-12.6c-0.7-9.4,5-17.5,12.8-18.1c3.3-0.3,6.6,0.9,9.3,3.2
	c3.5,3,5.7,7.6,6.1,12.6c0.7,9.4-5,17.5-12.8,18.1C88.9,284.3,88.6,284.3,88.3,284.3z M87.5,252.3c-0.3,0-0.5,0-0.8,0
	c-6.7,0.5-11.6,7.7-10.9,16c0.4,4.5,2.3,8.6,5.4,11.3c2.3,2,5.1,2.9,7.9,2.7c6.7-0.5,11.6-7.7,10.9-16c-0.4-4.5-2.3-8.6-5.4-11.3
	C92.5,253.2,90,252.3,87.5,252.3z"/>
</svg>
