<?xml version="1.0" encoding="utf-8"?>
<!-- Generator: Adobe Illustrator 21.0.0, SVG Export Plug-In . SVG Version: 6.00 Build 0)  -->
<svg version="1.1" id="图层_1" xmlns="http://www.w3.org/2000/svg" xmlns:xlink="http://www.w3.org/1999/xlink" x="0px" y="0px"
	 viewBox="0 0 500 500" style="enable-background:new 0 0 500 500;" xml:space="preserve">
<style type="text/css">
	.st0{stroke:#000000;stroke-width:4;stroke-miterlimit:10;}
	.st1{stroke:#000000;stroke-width:2;stroke-miterlimit:10;}
</style>
<path class="st0" d="M240.7,423.4c-13.4,0-25.4-1.7-34.6-5c-17.7-6.4-76.2-30.8-84.6-72.7c-0.2-0.9-3.8-22-4-25.9
	c-0.6-0.9-3.8-5-13.8-3.3l-1.7,0.3l0.6-1.6c0.1-0.2,5.5-16.8-12.8-39c-0.1-0.1-13.1-15.2-20.1-28.2l-44-73.9
	c-6.5-8.6-17-23-18.1-26.2l-0.9-1.8c-0.6-0.7-3.3-4.2-2.2-7.8c0.9-2.8,3.9-4.7,8.8-5.7h0.2h9v3.7l9.8,16.7
	c1.3,1.5,18.1,21.3,23.1,32.1l47,73.9c5.7,7.5,18.8,25.2,18.1,28.7l-0.9,5.5l1.3,1.3c1.3-5.8,5.4-22.1,10.1-27.4l-4.5-0.7l-2-24.5
	L42.6,102l-5.2-8.3l0.1-0.4c0-0.3,1-6.7,5.8-9.3c2.9-1.6,6.5-1.4,10.6,0.5l0.4,0.2l1.1,4.3l7.9,13.9c0.7,1,18,27,20,31
	c2,3.9,59.4,101,60,101.9l0.1,0.2v11.9l1.7,1.7l0.5-0.9c0.3-0.3,27.9-33.4,86.7-40.4c58.7-7,99.3,18.9,99.7,19.2
	c0.8,0.5,18.7,11.9,25.9,20.8h0.5V234l13.2-19.3l26.9-48.9l48.2-86.4l0.5-0.1c0.3,0,7.4-1,11.8,2.8c2.2,1.9,3.3,4.7,3.3,8.2v0.6
	L460,92l-35.6,66c-8.1,15.7-27.2,52.2-28.2,53.2c-0.8,0.9-12.2,17.5-19.7,28.6v24.5l-5,1.2c-0.3,0-0.6,0.1-0.7,0.2
	c0,0-0.1,0.3,0.5,1.2l0.1,0.1l11.7,26.4h0.2l-0.9-8.2l0.1-0.3c2.4-5.1,8.2-17.1,10.4-18.4c2.1-1.9,23.7-36.1,37.7-58.7
	c11.9-21.4,39.2-70.2,44-75.1l0,0c1.9-2.7,7.2-6.8,13.3-3.3l0.2,0.2l5,5c0.3,0.3,1.7,1.5,1.6,3.4c0,1.7-1.2,3.4-3.5,5l-2.9,5.8
	l-10,16.1c0,0.1-8.1,16.1-16,28l-59,96c-0.8,1.1-2.9,4.3-2.9,6.5h-2c0-3.3,3.1-7.4,3.2-7.6l58.9-95.9c7.9-11.8,15.9-27.8,16-27.9
	l10-16.1l3.1-6.2l0.2-0.1c1.8-1.2,2.8-2.4,2.9-3.5c0-1.1-0.9-1.8-0.9-1.8l-0.1-0.1l-4.9-4.9c-6.1-3.4-10.4,2.5-10.6,2.8l-0.2,0.3
	l-0.2,0.1c-2.9,2.4-27.6,45.8-43.5,74.6c-10.9,17.6-36.4,58.4-38.4,59.4c-1.1,0.7-5.7,9.3-9.4,17.3l1.1,9.8h-3.8L369.6,268
	c-0.8-1.3-1-2.4-0.6-3.2c0.6-1.1,1.9-1.2,2.3-1.3l3.1-0.8v-23.5l0.2-0.3c3.2-4.7,19.1-28.1,20.1-29.1c1-1.4,17.2-32.3,27.8-52.8
	l36.2-66.3l1.7-0.9c-0.1-2.6-1-4.6-2.6-6c-3.1-2.7-8.2-2.5-9.7-2.4L400.4,167l-27,49l-12.9,18.8v15.7H357l-0.3-0.4
	c-6.8-8.8-25.6-20.6-25.7-20.8c-0.4-0.3-40.4-25.7-98.3-18.9c-56.5,6.7-83.7,37.7-85.3,39.6l-1.6,3.1l-4.3-4.3v-12.1
	c-3.9-6.5-57.9-97.9-59.9-101.8c-1.9-3.9-19.8-30.6-19.9-30.9l-8.1-14.3l-0.9-3.5c-3.4-1.5-6.2-1.6-8.4-0.4
	c-3.3,1.8-4.5,6.2-4.7,7.5l4.8,7.7l82.1,140.2l2,23.5l9.2,1.5l-3.8,1.3c-4,1.3-9.1,18.7-11.3,29.3l-0.4,1.8l-4.7-4.7l1.1-6.7
	c0.2-2-8.9-15.4-17.8-27.1l-47.1-74.2c-4.9-10.7-22.7-31.6-22.8-31.8l-0.1-0.1l-10.1-17.2v-2.3h-6.9c-4.1,0.9-6.5,2.4-7.2,4.4
	c-0.9,2.8,1.8,5.9,1.8,5.9l0.1,0.2l1.1,2.2v0.2c0.4,1.5,9.4,14.3,17.8,25.4l0.1,0.1l44,74c6.9,12.8,19.8,27.7,19.9,27.9
	c16.1,19.5,14.6,34.7,13.6,39.5c11.3-1.4,14.4,4.5,14.5,4.8l0.1,0.2v0.2c0,2.3,2.6,17.9,4,25.8c8.2,40.9,65.9,64.9,83.4,71.2
	c31.6,11.5,98.3,2.7,137.1-25.9c37.2-27.4,39.6-74.8,39.6-75.2v-1.1l1.1,0.2c11.9,1.8,13.8-5.9,13.9-6.2l2,0.4
	c0,0.1-2.2,9.4-15.1,7.9c-0.6,7.4-5.6,50.1-40.3,75.7C317,413,274.4,423.4,240.7,423.4z M475.8,134.4L475.8,134.4L475.8,134.4z"/>
<path class="st1" d="M260.5,415.5h-3.6l-2-4.1l-6.3-0.8v4.9h-7v-5.1l-8-0.8v5.3l-5-1.7v-3.8l-8-0.8v4.2l-6-1.5v-4l-8-2.4v3.7h-5V403
	l-0.5-0.5l-12-3.7l-2.2,4.5l-1.8-1.8c-18.9-8-34-24-34.2-24.2l1.5-1.4c0.1,0.2,15.1,15.9,33.7,23.8l0.2,0.1l0.2,0.2l1.8-3.5l14,4.3
	l1.5,1.5v4.4h1v-4.3l12,3.6v4l2,0.5v-3.8l12,1.2v4.2l1,0.3v-4.7l12,1.2v4.9h3v-5.1l9.7,1.2l2,3.9h0.4v-5h11.6l2,4h0.4V408l11.3-2.3
	l3.5,3.5l-1-4.2l10.7-2.4l2,2.9l1.6-0.5v-3.9l12-5.5l5.9,3c3.8-2.5,29.7-19.3,34.2-27.3l1.7,1c-5.1,9.1-34.1,27.6-35.3,28.4L319,401
	l-6.1-3l-10,4.5v4.1l-4.4,1.5l-2-3.1l-7.3,1.6l0.9,3.6l-2.1,2.1l-4.3-4.3l-8.7,1.7v5.2h-3.6l-2-4H261v4.6H260.5z"/>
<path class="st1" d="M250.4,401.9c-31.9,0-51.6-9.7-59.4-14.5c-34-20.9-53-42-56.5-62.7c-5-30,6.6-48.9,7.1-49.7l2.8-4.4l-0.9,5.1
	c-0.1,0.3-5.8,32.7,1.8,42.2l0.1,0.2l0.1,0.2c0.1,0.4,11.4,37.8,50.4,55.4c14.7,6.6,33.4,10.2,52.8,10.2c29.6,0,60.6-8.4,81.1-27
	c32.1-29.2,33.9-54.3,26.7-83l-1.3-5.4l3.1,4.6c21.6,31.5,4,64.3,3.1,66c-4,9.9-20,27.9-21.1,29.2c-2.4,3.3-28.4,27.3-68.7,32.4
	C264,401.4,256.9,401.9,250.4,401.9z M140.5,281.9c-3.1,7.8-7.3,22.7-4,42.4c3.3,20.1,22,40.7,55.5,61.3
	c9.3,5.7,35.5,18.3,79.4,12.9c39.8-5,65.3-28.6,67.3-31.6l0.1-0.1c0.2-0.2,16.9-19,20.8-28.7l0.1-0.1c0.2-0.3,16.5-29.4,0.2-58.8
	c5.6,27,2,51.3-28.7,79.1c-15.7,14.3-39,23.8-65.4,26.8c-25.1,2.8-50.9-0.7-70.6-9.6c-38.5-17.3-50.6-53.5-51.5-56.4
	C137.7,311.3,139.2,292.1,140.5,281.9z"/>
<rect x="135.5" y="300" transform="matrix(0.9805 -0.1963 0.1963 0.9805 -56.3985 32.9552)" class="st1" width="5.1" height="2"/>
<rect x="134.9" y="320" transform="matrix(0.874 -0.4859 0.4859 0.874 -138.3089 108.4898)" class="st1" width="10.3" height="2"/>
<rect x="139.3" y="334" transform="matrix(0.7893 -0.614 0.614 0.7893 -175.1314 159.614)" class="st1" width="11.4" height="2"/>
<rect x="147.8" y="346.5" transform="matrix(0.7071 -0.7071 0.7071 0.7071 -200.7959 210.3038)" class="st1" width="11.3" height="2"/>
<rect x="160.1" y="359.9" transform="matrix(0.6376 -0.7704 0.7704 0.6376 -218.0322 258.3572)" class="st1" width="11" height="2"/>
<rect x="173.7" y="370.7" transform="matrix(0.4855 -0.8742 0.8742 0.4855 -232.7686 347.8509)" class="st1" width="11" height="2"/>
<path class="st1" d="M190.4,385l-1.7-1c2-3.6,5.6-9.5,7.9-9.5v2C195.6,376.7,192.8,380.6,190.4,385z"/>
<path class="st1" d="M209.5,393.7l-1.9-0.4c3.2-13.8,4.1-13.8,5-13.8v2c0.3,0,0.5-0.2,0.6-0.2C212.4,382.1,210.7,388.3,209.5,393.7z
	"/>
<path class="st1" d="M229.5,398.5h-2c0-2.1,0.1-12.5,2.3-14.7l1.4,1.4C230.1,386.3,229.5,392.8,229.5,398.5z"/>
<path class="st1" d="M250.5,400.5h-2c0-9.6,0.4-14.8,1.3-15.7l1.4,1.4c0.1-0.1,0.1-0.1,0.1-0.1C250.8,387.1,250.5,394.2,250.5,400.5
	z"/>
<rect x="269" y="384.5" transform="matrix(0.9978 -6.651802e-02 6.651802e-02 0.9978 -25.4775 18.8283)" class="st1" width="2" height="15"/>
<path class="st1" d="M290.2,395.4c-0.2-2.4-4.1-10.6-5.6-13.5l1.8-0.9c0.6,1.1,5.5,10.9,5.8,14.2L290.2,395.4z"/>
<path class="st1" d="M310.5,387.5h-2c0-1.9-4.2-8-6.8-11.4l1.6-1.2C304.5,376.4,310.5,384.3,310.5,387.5z"/>
<path class="st1" d="M325.5,378.5h-2c0-1.8-3.9-7.1-6.8-10.3l1.5-1.3C319.5,368.2,325.5,375.3,325.5,378.5z"/>
<path class="st1" d="M337.5,367.7c-0.3-0.8-4.2-5-7.7-8.5l1.4-1.4c8.3,8.3,8.3,9.3,8.3,9.7h-2C337.5,367.6,337.5,367.7,337.5,367.7z
	"/>
<path class="st1" d="M349.5,353.7c-0.4-0.8-4.3-4.5-7.7-7.5l1.3-1.5c8.3,7.3,8.3,8.3,8.3,8.8h-2
	C349.5,353.7,349.5,353.7,349.5,353.7z"/>
<path class="st1" d="M360.5,339.5h-2c-0.2-0.8-3.7-3.2-7.4-5.1l0.9-1.8C355.1,334.2,360.5,337.2,360.5,339.5z"/>
<path class="st1" d="M364.6,325.9c-0.5-1-4.2-2.6-7.4-3.5l0.5-1.9c1.2,0.4,7.5,2.2,8.6,4.5L364.6,325.9z"/>
<rect x="363.4" y="299.3" transform="matrix(0.3162 -0.9487 0.9487 0.3162 -37.741 552.5784)" class="st1" width="2" height="6.3"/>
<path class="st0" d="M398.5,309.7c-2-10.2,0-15,0.1-15.2l1.8,0.8l-0.9-0.4l0.9,0.4c0,0-1.9,4.5,0,14L398.5,309.7z"/>
</svg>
